<svg version="1.0"
  xmlns="http://www.w3.org/2000/svg" width="150" height="100" viewBox="0 0 213.000000 99.000000" preserveAspectRatio="xMidYMid meet">
  <g transform="translate(0.000000,99.000000) scale(0.100000,-0.100000)" fill="#ffffff" stroke="none">
    <path d="M1885 840 c-3 -5 -14 -10 -24 -10 -23 0 -54 -74 -41 -98 5 -10 11 -24 13 -33 7 -22 84 -46 99 -31 7 7 19 12 28 12 9 0 21 15 29 35 18 51 -2 102 -48 121 -40 17 -48 17 -56 4z m65 -30 c11 -6 22 -26 26 -47 6 -32 3 -40 -21 -61 -50 -42 -115 -13 -115 52 0 55 57 84 110 56z" />
    <path d="M1867 750 c-4 -16 0 -20 17 -20 12 0 27 5 34 12 9 9 12 8 12 -5 0 -9 5 -17 10 -17 6 0 10 11 10 23 0 21 -5 24 -39 25 -31 1 -40 -2 -44 -18z" />
    <path d="M781 813 c-1 -7 -24 -20 -53 -30 -37 -13 -57 -27 -70 -50 -11 -18 -33 -39 -50 -48 -39 -19 -48 -19 -48 0 0 16 -52 21 -84 9 -20 -8 -21 -50 -1 -58 12 -4 15 -24 15 -89 0 -63 -4 -88 -15 -97 -8 -7 -15 -21 -15 -31 0 -17 9 -19 85 -19 83 0 85 0 85 24 0 19 -7 26 -30 31 l-30 7 0 73 c0 42 5 77 11 80 6 4 26 7 44 7 29 0 34 4 37 27 2 21 9 27 35 29 20 2 45 15 63 33 40 40 39 55 -1 18 -17 -16 -41 -29 -52 -29 -18 0 -16 4 14 24 40 28 73 71 65 89 -3 9 -5 9 -5 0z m-235 -189 c-5 -13 -10 -14 -18 -6 -6 6 -8 18 -4 28 5 13 10 14 18 6 6 -6 8 -18 4 -28z" />
    <path d="M150 788 c-71 -36 -92 -87 -88 -209 4 -103 16 -134 64 -166 32 -21 142 -23 197 -4 l37 13 0 59 c0 44 4 61 15 65 8 4 15 17 15 30 0 23 -3 24 -70 24 -66 0 -70 -1 -70 -23 0 -12 8 -27 18 -34 14 -8 17 -20 14 -46 -3 -29 -9 -37 -31 -42 -74 -16 -111 35 -111 152 0 104 23 143 87 143 46 0 63 -9 63 -36 0 -20 5 -24 29 -24 31 0 41 14 41 59 0 34 -29 49 -109 57 -46 4 -64 1 -101 -18z" />
    <path d="M1383 693 c-18 -7 -16 -50 2 -57 12 -4 15 -24 15 -89 0 -63 -4 -88 -15 -97 -8 -7 -15 -21 -15 -31 0 -17 8 -19 70 -19 62 0 70 2 70 19 0 10 -7 24 -15 31 -11 9 -15 33 -15 91 0 75 1 80 25 91 18 8 35 9 53 2 26 -9 27 -12 30 -92 2 -67 0 -83 -13 -88 -8 -3 -15 -17 -15 -30 0 -23 3 -24 70 -24 63 0 70 2 70 20 0 10 -7 23 -17 28 -13 8 -16 23 -14 75 3 82 -13 143 -40 158 -22 11 -112 8 -141 -5 -13 -6 -18 -4 -18 8 0 12 -9 16 -37 15 -21 0 -44 -3 -50 -6z m72 -72 c-3 -12 -10 -21 -15 -21 -12 0 -18 49 -6 53 18 7 29 -9 21 -32z" />
    <path d="M788 674 c-81 -43 -87 -219 -10 -258 57 -29 133 -28 179 2 17 11 4 55 -14 48 -8 -4 -32 -9 -53 -12 -33 -5 -43 -2 -64 19 -46 46 -36 57 54 57 92 0 100 7 90 78 -10 61 -36 82 -104 82 -28 -1 -63 -7 -78 -16z m100 -40 c15 -10 22 -24 20 -37 -3 -19 -11 -22 -55 -25 -62 -4 -70 12 -28 53 28 29 33 30 63 9z" />
    <path d="M1093 656 c-35 -32 -37 -38 -41 -102 -3 -60 -1 -74 20 -104 32 -48 94 -68 157 -51 56 15 65 23 56 51 -5 15 -12 19 -23 15 -10 -4 -33 -9 -52 -12 -40 -6 -77 18 -82 52 -3 18 3 20 79 23 79 3 83 4 89 27 10 41 -5 93 -33 115 -19 14 -40 20 -79 20 -48 0 -59 -4 -91 -34z m132 -52 c0 -27 -3 -29 -44 -32 -51 -4 -62 4 -50 36 19 50 94 47 94 -4z" />
    <path d="M1233 295 c-15 -11 -23 -28 -25 -58 l-3 -42 -270 -7 c-148 -3 -300 -9 -336 -13 -47 -5 -83 -3 -128 9 -76 19 -72 19 -65 1 4 -9 19 -15 38 -15 47 0 106 -12 106 -21 0 -4 -13 -10 -29 -14 -29 -6 -69 -40 -59 -50 3 -3 18 5 34 18 42 34 221 83 274 75 21 -3 16 -7 -27 -22 -51 -17 -65 -30 -41 -38 6 -2 -3 -10 -20 -17 -18 -8 -32 -18 -32 -23 0 -6 5 -6 14 1 7 6 20 9 28 6 9 -4 20 7 31 30 12 25 23 35 36 33 10 -2 25 3 35 11 12 10 64 14 216 16 l200 3 0 -28 c0 -16 7 -36 16 -44 22 -22 87 -21 107 2 19 20 23 52 7 52 -5 0 -10 -9 -10 -20 0 -24 -29 -41 -60 -35 -37 7 -41 17 -38 101 l3 79 42 3 c38 3 43 1 49 -22 7 -30 24 -35 24 -7 0 40 -78 65 -117 36z" />
    <path d="M1423 302 c-22 -3 -23 -8 -23 -98 0 -52 0 -96 0 -99 0 -3 3 -4 8 -2 4 1 7 18 8 37 0 30 4 35 27 38 24 3 30 -2 48 -43 11 -25 24 -43 29 -40 6 4 2 22 -9 43 -19 37 -19 38 0 61 50 61 2 117 -88 103z m83 -38 c4 -14 1 -37 -5 -50 -9 -21 -17 -25 -48 -22 -39 3 -39 3 -34 83 1 11 12 15 41 15 34 0 40 -3 46 -26z" />
    <path d="M1750 301 c0 -6 22 -11 49 -13 l49 -3 -53 -89 c-30 -49 -52 -93 -49 -98 8 -13 124 -10 124 3 0 8 -14 10 -45 6 -24 -4 -47 -2 -50 3 -3 5 17 45 45 89 27 45 50 85 50 90 0 8 -56 21 -97 21 -13 0 -23 -4 -23 -9z" />
    <path d="M1938 303 c-16 -4 -18 -18 -18 -109 l0 -104 56 0 c36 0 53 4 49 11 -4 6 -23 9 -43 7 -35 -3 -37 -2 -43 34 -3 21 -4 40 -1 43 3 3 23 5 44 5 23 0 37 4 33 10 -3 5 -22 7 -41 4 l-34 -5 0 45 0 46 46 0 c27 0 43 4 39 10 -6 10 -55 12 -87 3z" />
    <path d="M1590 204 c-31 -96 -36 -146 -9 -89 12 25 21 30 55 33 39 3 42 1 54 -30 7 -18 14 -27 17 -21 8 21 -57 203 -72 203 -8 0 -26 -38 -45 -96z m69 17 c18 -54 15 -61 -24 -61 -39 0 -40 2 -24 51 6 19 13 40 15 48 6 19 18 4 33 -38z" />
  </g>
</svg>