<?xml version="1.0" standalone="no"?>
<!DOCTYPE svg PUBLIC "-//W3C//DTD SVG 20010904//EN"
 "http://www.w3.org/TR/2001/REC-SVG-20010904/DTD/svg10.dtd">
<svg version="1.0" xmlns="http://www.w3.org/2000/svg"
 width="62.000000pt" height="71.000000pt" viewBox="0 0 62.000000 71.000000"
 preserveAspectRatio="xMidYMid meet">
<metadata>
Created by potrace 1.10, written by Peter Selinger 2001-2011
</metadata>
<g transform="translate(0.000000,71.000000) scale(0.100000,-0.100000)"
fill="#537f44" stroke="none">
<path d="M130 565 c0 -41 22 -90 47 -104 16 -9 15 -11 -9 -30 -41 -33 -71
-105 -71 -170 0 -126 96 -221 223 -221 114 0 205 79 223 191 9 57 3 60 -124
57 -102 -3 -114 -5 -117 -22 -5 -26 14 -35 60 -28 35 4 40 3 37 -14 -2 -10
-21 -27 -41 -37 -33 -16 -40 -17 -72 -3 -61 25 -73 90 -27 137 33 32 75 38
107 14 25 -19 53 -19 61 0 15 41 -78 81 -145 63 -71 -19 -107 -73 -100 -150 8
-82 84 -139 164 -123 42 7 100 56 108 90 4 14 13 25 21 25 8 0 15 5 15 10 0 6
7 10 15 10 8 0 15 -4 15 -10 0 -5 -6 -10 -13 -10 -7 0 -19 -15 -25 -34 -7 -19
-30 -50 -52 -70 -67 -60 -153 -60 -219 0 -50 44 -65 82 -59 145 9 91 74 149
168 149 65 0 112 -25 145 -77 21 -34 52 -43 61 -18 7 18 -29 79 -59 100 l-22
16 21 17 c30 24 44 55 44 96 l0 36 -73 0 c-60 0 -77 -4 -95 -20 l-22 -21 -22
21 c-18 16 -35 20 -95 20 l-73 0 0 -35z m56 0 c-3 -8 -8 -21 -11 -28 -3 -8 6
-26 21 -40 21 -21 37 -27 73 -28 41 0 43 -1 21 -11 -14 -5 -40 -16 -57 -24
-32 -13 -43 -8 -23 12 7 7 0 20 -20 39 -34 33 -43 95 -14 95 10 0 14 -5 10
-15z m44 5 c0 -5 -2 -10 -4 -10 -3 0 -8 5 -11 10 -3 6 -1 10 4 10 6 0 11 -4
11 -10z m40 1 c0 -19 60 -23 86 -6 34 22 42 13 10 -12 -30 -24 -77 -20 -102 8
-10 11 -12 19 -6 19 7 0 12 -4 12 -9z m160 5 c0 -3 -4 -8 -10 -11 -5 -3 -10
-1 -10 4 0 6 5 11 10 11 6 0 10 -2 10 -4z m48 -30 c3 -21 -5 -37 -28 -61 -20
-21 -28 -35 -21 -39 21 -13 11 -27 -10 -15 -12 6 -40 17 -63 24 l-41 13 53 1
c28 1 52 6 52 11 0 6 6 10 13 10 21 0 39 38 27 60 -13 25 -13 33 3 28 6 -3 13
-17 15 -32z m-213 -16 c12 -13 31 -20 55 -20 24 0 43 7 55 20 17 19 75 29 75
13 -1 -33 -51 -53 -130 -53 -79 0 -129 20 -130 53 0 16 58 6 75 -13z m-97
-150 c-7 -10 -14 -17 -17 -15 -4 4 18 35 25 35 2 0 -1 -9 -8 -20z m321 -14
c-3 -3 -11 5 -18 17 -13 21 -12 21 5 5 10 -10 16 -20 13 -22z m-239 -20 c0 -3
-4 -8 -10 -11 -5 -3 -10 -1 -10 4 0 6 5 11 10 11 6 0 10 -2 10 -4z m205 -96
c-3 -5 -15 -10 -25 -10 -10 0 -22 5 -25 10 -4 6 7 10 25 10 18 0 29 -4 25 -10z
m26 -107 c-12 -20 -14 -14 -5 12 4 9 9 14 11 11 3 -2 0 -13 -6 -23z m-313 -8
c-3 -3 -9 2 -12 12 -6 14 -5 15 5 6 7 -7 10 -15 7 -18z"/>
</g>
</svg>
